<svg width="60" height="60" viewBox="0 0 60 60" fill="none" xmlns="http://www.w3.org/2000/svg">
<circle cx="30" cy="30" r="30" fill="#180537"/>
<g clip-path="url(#clip0)">
<path d="M24.0292 25.9106L29.576 22.7083C29.6441 22.6691 29.7213 22.6485 29.7999 22.6485C29.8784 22.6485 29.9556 22.6691 30.0237 22.7083L35.5705 25.9106C35.6387 25.9501 35.6953 26.0069 35.7346 26.0752C35.7739 26.1436 35.7945 26.2211 35.7944 26.2999V32.7032C35.7942 32.7818 35.7734 32.859 35.7342 32.9271C35.6949 32.9952 35.6385 33.0518 35.5705 33.0913L30.0237 36.2936C29.9556 36.3328 29.8784 36.3534 29.7999 36.3534C29.7213 36.3534 29.6441 36.3328 29.576 36.2936L24.0292 33.0913C23.961 33.0518 23.9044 32.995 23.8651 32.9267C23.8258 32.8583 23.8052 32.7808 23.8053 32.702V26.2999C23.8053 26.2211 23.826 26.1436 23.8653 26.0753C23.9045 26.007 23.9611 25.9502 24.0292 25.9106V25.9106ZM44.2198 28.8281L37.5938 17.3002C37.3529 16.8829 36.9076 16.5751 36.4258 16.5751H23.1751C22.6933 16.5751 22.248 16.8829 22.0071 17.3002L15.3811 28.8026C15.263 29.0096 15.2009 29.2438 15.2009 29.4821C15.2009 29.7204 15.263 29.9546 15.3811 30.1616L22.0083 41.5958C22.248 42.0119 22.6933 42.2248 23.1751 42.2248H36.4283C36.9088 42.2248 37.3529 42.018 37.595 41.6019L44.221 30.1494C44.339 29.9493 44.4013 29.7211 44.4013 29.4888C44.4013 29.2564 44.339 29.0283 44.221 28.8281H44.2198ZM38.7338 34.3713C38.7316 34.4554 38.7075 34.5375 38.664 34.6096C38.6205 34.6817 38.5591 34.7413 38.4856 34.7825L30.0432 39.6516C29.9706 39.6931 29.8884 39.7149 29.8047 39.7149C29.7211 39.7149 29.6389 39.6931 29.5663 39.6516L21.1189 34.7825C21.0453 34.7414 20.9836 34.6819 20.9399 34.6098C20.8962 34.5377 20.8719 34.4555 20.8695 34.3713V24.6306C20.8695 24.4603 20.9705 24.3033 21.1177 24.2194L29.5565 19.3503C29.7025 19.2651 29.8875 19.2651 30.0335 19.3503L38.4808 24.2206C38.5546 24.2615 38.6166 24.3209 38.6605 24.393C38.7045 24.4651 38.7289 24.5474 38.7314 24.6318L38.7338 34.3713Z" fill="white"/>
</g>
<defs>
<clipPath id="clip0">
<rect width="29.2" height="29.2" fill="white" transform="translate(15.2 14.8)"/>
</clipPath>
</defs>
</svg>
