<svg xmlns="http://www.w3.org/2000/svg" width="60" height="60" fill="none" viewBox="0 0 60 60"><circle cx="30" cy="30" r="30" fill="#180537"/><path fill="#fff" d="M43.7437 29.6C43.7437 21.7867 37.4133 15.4562 29.6 15.4562C21.7867 15.4562 15.4562 21.7867 15.4562 29.6C15.4562 36.6593 20.6284 42.5107 27.39 43.5726V33.6886H23.7971V29.6H27.39V26.4838C27.39 22.9393 29.5002 20.9814 32.7321 20.9814C34.28 20.9814 35.8985 21.2575 35.8985 21.2575V24.7364H34.1146C32.358 24.7364 31.81 25.8268 31.81 26.9452V29.6H35.7326L35.1052 33.6886H31.81V43.5726C38.5716 42.5107 43.7437 36.6593 43.7437 29.6Z"/></svg>