<svg width="60" height="60" viewBox="0 0 60 60" fill="none" xmlns="http://www.w3.org/2000/svg">
<circle cx="30" cy="30" r="30" fill="#180537"/>
<path d="M42.4932 28.6621L31.3407 17.5067C31.032 17.1983 30.6134 17.025 30.177 17.025C29.7406 17.025 29.322 17.1983 29.0133 17.5067L26.6944 19.8239L29.6326 22.7622C31.1759 22.2409 32.637 23.7186 32.1072 25.2533L34.9394 28.0855C36.8916 27.4125 38.4286 29.8534 36.9623 31.3186C35.4515 32.8293 32.9581 31.1549 33.7685 29.189L31.1251 26.5491V33.4983C32.568 34.2135 32.3947 35.8851 31.643 36.635C31.2757 37.0021 30.7778 37.2082 30.2586 37.2082C29.7393 37.2082 29.2414 37.0021 28.8741 36.635C27.8721 35.6313 28.2428 33.9597 29.5157 33.4413V26.4264C28.3295 25.9411 28.1128 24.6733 28.4527 23.86L25.556 20.96L17.907 28.6102C17.5984 28.9188 17.425 29.3374 17.425 29.7739C17.425 30.2104 17.5984 30.6289 17.907 30.9376L29.0629 42.0929C29.3715 42.4013 29.79 42.5746 30.2263 42.5746C30.6627 42.5746 31.0811 42.4013 31.3898 42.0929L42.4932 30.9895C42.8018 30.6808 42.9751 30.2623 42.9751 29.8258C42.9751 29.3893 42.8018 28.9707 42.4932 28.6621V28.6621Z" fill="white"/>
</svg>
