<svg width="60" height="60" viewBox="0 0 60 60" fill="none" xmlns="http://www.w3.org/2000/svg">
<rect width="60" height="60" fill="white"/>
<circle cx="30" cy="30" r="30" fill="#180537"/>
<g clip-path="url(#clip0)">
<path d="M15.6 15.2H44.8V44.4H15.6V15.2ZM42.408 37.4358C42.1951 36.1036 41.3276 34.9842 38.7544 33.9403C37.8589 33.5206 36.8637 33.2286 36.568 32.5533C36.4573 32.1518 36.4403 31.9328 36.512 31.6956C36.6945 30.9096 37.6253 30.6736 38.3553 30.8926C38.8298 31.0386 39.2678 31.4036 39.5428 31.9876C40.8008 31.1651 40.8008 31.1651 41.678 30.6188C41.3495 30.1078 41.1865 29.8876 40.965 29.6698C40.1985 28.8121 39.1778 28.3741 37.517 28.4118L36.6593 28.5201C35.8368 28.7208 35.0533 29.1588 34.5788 29.7428C33.1918 31.3135 33.592 34.051 35.271 35.1825C36.9318 36.4235 39.3603 36.6961 39.6705 37.8653C39.9625 39.2888 38.612 39.745 37.2785 39.5808C36.2918 39.3618 35.7455 38.8678 35.1433 37.9553L32.9168 39.234C33.1723 39.818 33.4643 40.0723 33.9023 40.5833C36.0193 42.7198 41.3118 42.6103 42.262 39.3618C42.2973 39.2523 42.554 38.504 42.352 37.3543L42.408 37.4358V37.4358ZM31.4787 28.6211H28.7436C28.7436 30.979 28.7327 33.3223 28.7327 35.6838C28.7327 37.1827 28.8093 38.5588 28.5648 38.9822C28.1633 39.8205 27.1291 39.7134 26.6595 39.5662C26.1777 39.3277 25.9331 38.9992 25.6496 38.5259C25.573 38.3982 25.5158 38.2875 25.4951 38.2875L23.2747 39.6562C23.6458 40.4227 24.1872 41.0822 24.8856 41.5019C25.9258 42.1224 27.3238 42.3232 28.7874 41.9947C29.7401 41.7197 30.5613 41.1539 30.9908 40.2779C31.6113 39.1464 31.4799 37.7594 31.4738 36.207C31.4884 33.7079 31.4738 31.2077 31.4738 28.6892L31.4787 28.6211V28.6211Z" fill="white"/>
</g>
<defs>
<clipPath id="clip0">
<rect width="29.2" height="29.2" fill="white" transform="translate(15.6 15.2)"/>
</clipPath>
</defs>
</svg>
