<svg xmlns="http://www.w3.org/2000/svg" width="60" height="60" fill="none" viewBox="0 0 60 60"><circle cx="30" cy="30" r="30" fill="#180537"/><g clip-path="url(#clip0)"><path fill="#fff" d="M41.4625 15H17.7375C16.2319 15 15 16.2319 15 17.7375V41.4625C15 42.9681 16.2319 44.2 17.7375 44.2H41.4625C42.9681 44.2 44.2 42.9681 44.2 41.4625V17.7375C44.2 16.2319 42.9681 15 41.4625 15ZM25.95 38.725H22.3V25.95H25.95V38.725ZM24.125 24.125C23.1158 24.125 22.3 23.3092 22.3 22.3C22.3 21.2908 23.1158 20.475 24.125 20.475C25.1342 20.475 25.95 21.2908 25.95 22.3C25.95 23.3092 25.1342 24.125 24.125 24.125ZM38.725 38.725H35.075V31.425C35.075 30.4158 34.2592 29.6 33.25 29.6C32.2408 29.6 31.425 30.4158 31.425 31.425V38.725H27.775V25.95H31.425V28.2148C32.1769 27.1819 33.3303 25.95 34.6188 25.95C36.8891 25.95 38.725 27.9922 38.725 30.5125V38.725Z"/></g><defs><clipPath id="clip0"><rect width="29.2" height="29.2" fill="#fff" transform="translate(15 15)"/></clipPath></defs></svg>