<svg width="60" height="60" viewBox="0 0 60 60" fill="none" xmlns="http://www.w3.org/2000/svg">
<circle cx="30" cy="30" r="30" fill="#180537"/>
<g clip-path="url(#clip0)">
<path d="M36.5025 26.7802C34.9659 20.0156 31.3414 17.7927 30.9521 16.9423C30.5238 16.3425 30.0603 15.2 30.0603 15.2C30.0578 15.2231 30.0554 15.2377 30.0542 15.2596V15.2754H30.0529C30.0505 15.2937 30.0493 15.3059 30.0481 15.3229V15.3411H30.0457C30.0457 15.3533 30.0432 15.363 30.0432 15.3728V15.4044H30.0396C30.0384 15.4141 30.0383 15.4263 30.0359 15.4348V15.4604H30.0335C30.0335 15.4689 30.0335 15.4786 30.0311 15.4859V15.5103H30.0286C30.0286 15.5224 30.0274 15.537 30.0262 15.5492V15.5516C30.0225 15.5723 30.0189 15.593 30.0152 15.6125V15.6222H30.0128C30.0116 15.6271 30.0092 15.6319 30.0092 15.6368V15.6575H30.0055V15.6842H29.9994V15.7061H29.9933V15.7317H29.9885V15.7548H29.9836V15.7755H29.9763V15.7925H29.9714V15.8144H29.9666V15.8315H29.9605V15.8473H29.9568V15.8655H29.952C29.9507 15.8667 29.9508 15.8692 29.9508 15.8704V15.8826H29.9471C29.9459 15.885 29.9459 15.8874 29.9459 15.8899V15.8972H29.9434C29.9422 15.9008 29.941 15.9069 29.941 15.9093C29.9374 15.9178 29.9325 15.9264 29.9289 15.9349V15.9373C29.9264 15.9397 29.924 15.9434 29.9228 15.9458V15.9556H29.9179V15.9653H29.9118V15.975H29.9082V15.9872H29.9009V16.0042H29.896V16.0091H29.8911V16.0188H29.8863V16.0322H29.8814V16.0419H29.8741V16.0553H29.8692V16.0651H29.8631V16.0748H29.8595V16.087H29.8534V16.0967H29.8486V16.104H29.8437V16.1137H29.8364V16.1247H29.8315V16.132H29.8254V16.1417H29.8206V16.1551H29.8145V16.16H29.8108V16.1697H29.8035V16.1746H29.7987V16.1867H29.7938V16.1916H29.7889V16.2013H29.7828V16.2086H29.7792L29.7768 16.2135V16.2184H29.7743C29.7731 16.2208 29.7719 16.2208 29.7719 16.2232V16.2244H29.7707C29.7695 16.2281 29.7682 16.2305 29.7658 16.233V16.2366H29.7646C29.7585 16.2439 29.7549 16.2512 29.75 16.2585V16.2597C29.7476 16.2622 29.7415 16.267 29.7391 16.2719V16.2743H29.7378C29.7366 16.2755 29.7342 16.2768 29.7342 16.278V16.2816H29.7317L29.7281 16.2853V16.2865H29.7269C29.7269 16.2877 29.7244 16.2889 29.7232 16.2914V16.2962H29.7196L29.7171 16.2987V16.3011H29.7147C29.7147 16.3035 29.7123 16.3035 29.7123 16.3047V16.3084H29.7074C29.7074 16.3096 29.7062 16.3108 29.705 16.312V16.3193H29.7013V16.3242H29.6965V16.3315H29.6916V16.3412H29.6855V16.3315H29.6794V16.3364H29.6746V16.3437H29.6685V16.3534H29.6624V16.3583H29.6575V16.3656H29.6527V16.3704H29.6478V16.3802H29.6405V16.385H29.6356V16.3923H29.6296V16.3972H29.6247V16.4033H29.6186V16.4155H29.6162V16.4203H29.6089V16.4264H29.604V16.4288H29.5991V16.4337H29.5931V16.4459H29.5882V16.4507H29.5821V16.4556H29.5772V16.4629H29.5711V16.4678H29.5651V16.4726H29.5602V16.4775H29.5553V16.4897H29.5505V16.4958H29.5432V16.5006H29.5383V16.5055H29.5322V16.5128H29.5273V16.5177H29.5213V16.5262H29.5164V16.531H29.5091V16.5383H29.5067V16.5432H29.5018V16.5481H29.4957V16.5529H29.4908V16.5602H29.4848V16.5651H29.4811C29.4799 16.5663 29.4799 16.5675 29.4799 16.5675V16.57H29.4775L29.4726 16.5748C29.4726 16.5748 29.4702 16.5773 29.4677 16.5785V16.5858H29.4629V16.5919H29.458V16.5967H29.4531V16.6016H29.4495L29.4458 16.6053V16.6089H29.4434L29.441 16.6113V16.615H29.4385C29.4324 16.6223 29.43 16.6272 29.4215 16.6345C29.4191 16.6369 29.4118 16.643 29.4069 16.6466C29.3923 16.6564 29.374 16.6722 29.3594 16.6856C29.3497 16.6916 29.34 16.7002 29.3327 16.7062V16.7075H29.3315C29.312 16.7233 29.2938 16.7379 29.2719 16.7549V16.7561C29.2427 16.7805 29.2147 16.8036 29.1818 16.8316V16.8303H29.1794C29.11 16.8875 29.037 16.952 28.9531 17.0238V17.025H28.9519C28.7462 17.2051 28.5017 17.4362 28.2279 17.7161L28.2097 17.7343L28.2048 17.7392C26.5502 19.451 23.9428 23.0183 23.6679 28.7829C23.6435 29.2598 23.6484 29.7234 23.6752 30.1747V30.1857C23.8078 32.4572 24.5208 34.3966 25.4126 35.9722V35.9734C25.7678 36.6012 26.1511 37.1718 26.5392 37.6828V37.684C27.88 39.4543 29.2487 40.503 29.5979 40.7573C30.1345 42.002 30.0846 44.1384 30.0846 44.1384L30.8681 44.4C30.8681 44.4 30.7087 42.3305 30.9326 41.3316C31.002 41.0189 31.1662 40.7524 31.3572 40.5261C31.4862 40.4349 31.8682 40.1599 32.3269 39.7414C32.3488 39.7183 32.361 39.6976 32.3804 39.6757C34.231 37.9505 37.6875 33.7019 36.5025 26.7802V26.7802Z" fill="white"/>
</g>
<defs>
<clipPath id="clip0">
<rect width="29.2" height="29.2" fill="white" transform="translate(15.6 15.2)"/>
</clipPath>
</defs>
</svg>
