<svg width="60" height="60" viewBox="0 0 60 60" fill="none" xmlns="http://www.w3.org/2000/svg">
<circle cx="30" cy="30" r="30" fill="#180537"/>
<g clip-path="url(#clip0)">
<path d="M30.1928 44.4C29.7528 44.4 29.3141 44.2981 28.9277 44.1001L24.8985 41.9857C24.298 41.6881 24.5917 41.5816 24.7902 41.5202C25.5918 41.2736 25.755 41.2168 26.6102 40.7849C26.7003 40.7409 26.8178 40.7571 26.9118 40.8058L30.0061 42.435C30.1197 42.4906 30.2764 42.4906 30.3808 42.435L42.446 36.2597C42.5582 36.203 42.63 36.0872 42.63 35.9702V23.6208C42.63 23.5004 42.5582 23.3869 42.4433 23.3255L30.3834 17.1549C30.2711 17.097 30.1236 17.097 30.0113 17.1549L17.954 23.3279C17.8365 23.3869 17.7634 23.5039 17.7634 23.6208V35.9714C17.7634 36.0895 17.8365 36.2007 17.9527 36.2574L21.2585 37.9503C23.0524 38.7458 24.1504 37.809 24.1504 36.8676V24.6745C24.1504 24.502 24.3071 24.3665 24.5016 24.3665H26.0318C26.2224 24.3665 26.3804 24.502 26.3804 24.6745V36.8676C26.3804 38.9901 25.0774 40.2083 22.8083 40.2083C22.1111 40.2083 21.5614 40.2083 20.0286 39.5378L16.8651 37.9225C16.0844 37.5219 15.6 36.7727 15.6 35.9702V23.6208C15.6 22.8184 16.0844 22.0703 16.8651 21.6709L28.9316 15.4875C29.6954 15.1042 30.7098 15.1042 31.4671 15.4875L43.5322 21.6709C44.3143 22.0715 44.8 22.8195 44.8 23.6208V35.9702C44.8 36.7727 44.3143 37.5184 43.5322 37.9225L31.4671 44.1001C31.0806 44.2981 30.6432 44.4 30.1967 44.4H30.1928ZM33.9203 35.8915C28.6391 35.8915 27.5333 33.7412 27.5333 31.9383C27.5333 31.7669 27.6873 31.6303 27.8806 31.6303H29.4408C29.6144 31.6303 29.7606 31.7414 29.7867 31.892C30.0218 33.3 30.7229 34.0122 33.9177 34.0122C36.4584 34.0122 37.5408 33.5015 37.5408 32.3065C37.5408 31.6164 37.2353 31.1057 33.2845 30.7618C29.9839 30.4723 27.9406 29.8251 27.9406 27.4837C27.9406 25.3241 29.993 24.0365 33.4333 24.0365C37.2992 24.0365 39.2107 25.2257 39.4535 27.7801C39.4626 27.867 39.4274 27.9515 39.3608 28.0175C39.2942 28.08 39.2028 28.1171 39.1049 28.1171H37.5382C37.3763 28.1171 37.234 28.0152 37.2 27.8751C36.824 26.3929 35.9101 25.9193 33.432 25.9193C30.6563 25.9193 30.3338 26.7762 30.3338 27.4189C30.3338 28.1981 30.715 28.4251 34.4608 28.864C38.1688 29.2982 39.9314 29.9142 39.9314 32.2243C39.9314 34.5564 37.7405 35.8915 33.9177 35.8915H33.9203Z" fill="white"/>
</g>
<defs>
<clipPath id="clip0">
<rect width="29.2" height="29.2" fill="white" transform="translate(15.6 15.2)"/>
</clipPath>
</defs>
</svg>
