<svg width="60" height="60" viewBox="0 0 60 60" fill="none" xmlns="http://www.w3.org/2000/svg">
<circle cx="30" cy="30" r="30" fill="#180537"/>
<g clip-path="url(#clip0)">
<path d="M39.4504 25.3059C39.1425 25.2033 38.8345 25.1063 38.5265 25.0151C38.5779 24.8041 38.6235 24.5931 38.6691 24.382C39.3706 20.983 38.9086 18.2512 37.3517 17.3501C35.8518 16.4889 33.4051 17.3843 30.93 19.5401C30.6847 19.7511 30.4452 19.9735 30.2171 20.1959C30.0631 20.0477 29.9034 19.8994 29.7437 19.7568C27.1488 17.4527 24.5482 16.4832 22.9912 17.39C21.497 18.2569 21.0522 20.829 21.6795 24.0456C21.7422 24.3649 21.8107 24.6786 21.8905 24.998C21.5255 25.1006 21.1662 25.2147 20.8297 25.3345C17.7843 26.3895 15.6 28.0549 15.6 29.7772C15.6 31.5566 17.9269 33.3416 21.0921 34.4252C21.3487 34.5108 21.6054 34.5963 21.8677 34.6705C21.7822 35.0127 21.708 35.3491 21.6396 35.697C21.0408 38.8623 21.5084 41.3716 23.0026 42.2328C24.5425 43.1225 27.1317 42.21 29.6525 40.0029C29.8521 39.8261 30.0517 39.6436 30.2513 39.4497C30.5022 39.6949 30.7646 39.9288 31.0269 40.1569C33.4679 42.2556 35.8803 43.1054 37.3688 42.2442C38.9086 41.3545 39.4105 38.657 38.7604 35.372C38.709 35.121 38.652 34.8644 38.5893 34.602C38.7718 34.5507 38.9486 34.4937 39.1254 34.4366C42.4161 33.3474 44.8 31.5851 44.8 29.7772C44.8 28.0492 42.5529 26.3724 39.4504 25.3059V25.3059ZM31.7341 20.464C33.8557 18.6162 35.8347 17.8919 36.7358 18.4109C37.6996 18.9641 38.0703 21.1997 37.4658 24.1368C37.4258 24.3307 37.3859 24.5189 37.3346 24.7071C36.0685 24.422 34.7853 24.2167 33.4964 24.1026C32.755 23.0418 31.9451 22.0267 31.0669 21.0742C31.2893 20.8632 31.506 20.6636 31.7341 20.464V20.464ZM25.1356 32.7371C25.4265 33.2333 25.723 33.7295 26.0367 34.2142C25.147 34.1173 24.263 33.9747 23.3904 33.7865C23.6414 32.9652 23.9551 32.1155 24.3201 31.2486C24.5824 31.7505 24.8504 32.2466 25.1356 32.7371V32.7371ZM23.4076 25.8763C24.2288 25.6938 25.1014 25.5455 26.0082 25.4314C25.7059 25.9048 25.4094 26.3895 25.1299 26.88C24.8504 27.3648 24.5767 27.8609 24.3201 28.3628C23.9608 27.5131 23.6585 26.6804 23.4076 25.8763ZM24.9702 29.8057C25.3466 29.0187 25.7572 28.2488 26.1907 27.4902C26.6241 26.7317 27.0918 25.996 27.5822 25.2717C28.4377 25.209 29.3103 25.1748 30.2 25.1748C31.0897 25.1748 31.9679 25.209 32.8177 25.2717C33.3025 25.9903 33.7644 26.726 34.2036 27.4788C34.6427 28.2317 35.0533 29.0016 35.4411 29.7829C35.059 30.5699 34.6484 31.3456 34.2093 32.1098C33.7758 32.8683 33.3139 33.604 32.8291 34.334C31.9794 34.3967 31.0954 34.4252 30.2 34.4252C29.3046 34.4252 28.4377 34.3967 27.5994 34.3454C27.1032 33.6211 26.6355 32.8797 26.1964 32.1212C25.7572 31.3627 25.3523 30.5927 24.9702 29.8057ZM35.2701 32.7257C35.5609 32.2238 35.8347 31.7163 36.1027 31.203C36.4677 32.0299 36.7871 32.8683 37.0665 33.7295C36.1826 33.9291 35.2872 34.0831 34.3861 34.1857C34.694 33.7066 34.9849 33.2162 35.2701 32.7257ZM36.0913 28.3628C35.8233 27.8609 35.5495 27.3591 35.2644 26.8686C34.9849 26.3838 34.694 25.9048 34.3918 25.4314C35.31 25.5455 36.1883 25.6995 37.0095 25.8877C36.7472 26.7317 36.4392 27.553 36.0913 28.3628V28.3628ZM30.2114 21.9468C30.8102 22.597 31.3748 23.2813 31.8995 23.9885C30.7703 23.9372 29.6354 23.9372 28.5061 23.9885C29.0651 23.2528 29.6411 22.5684 30.2114 21.9468ZM23.5958 18.4508C24.5539 17.8919 26.6811 18.6903 28.9225 20.675C29.0651 20.8005 29.2076 20.9374 29.3559 21.0742C28.4719 22.0267 27.6564 23.0418 26.9093 24.1026C25.6204 24.2167 24.3429 24.4163 23.0768 24.6957C23.0026 24.4049 22.9399 24.1083 22.8772 23.8117C22.3411 21.0514 22.6947 18.9698 23.5958 18.4508V18.4508ZM22.1985 33.4842C21.959 33.4158 21.7251 33.3417 21.4913 33.2618C20.2765 32.8797 18.8964 32.2752 17.8983 31.4824C17.3223 31.0832 16.9345 30.4673 16.8261 29.7772C16.8261 28.7335 18.6283 27.399 21.229 26.4922C21.554 26.3781 21.8848 26.2755 22.2156 26.1785C22.6034 27.4161 23.0711 28.6309 23.6129 29.8057C23.0654 30.9977 22.592 32.2295 22.1985 33.4842V33.4842ZM28.8483 39.0733C27.9073 39.9345 26.818 40.6188 25.6318 41.0865C24.9987 41.3888 24.2687 41.4173 23.6186 41.1606C22.7118 40.6359 22.3354 38.6227 22.8486 35.9138C22.9114 35.5944 22.9798 35.275 23.0597 34.9613C24.3372 35.2351 25.6261 35.4233 26.9321 35.5202C27.6849 36.5867 28.5119 37.6076 29.3958 38.5657C29.2133 38.7425 29.0308 38.9136 28.8483 39.0733ZM30.2456 37.6874C29.6639 37.0601 29.0822 36.3643 28.5176 35.6172C29.0651 35.64 29.6297 35.6514 30.2 35.6514C30.7874 35.6514 31.3634 35.64 31.9337 35.6115C31.409 36.3358 30.8444 37.0259 30.2456 37.6874V37.6874ZM37.6996 39.3984C37.6483 40.0941 37.3061 40.7443 36.7586 41.1834C35.8518 41.7081 33.9184 41.0238 31.8311 39.233C31.5915 39.0277 31.352 38.8052 31.1068 38.5771C31.9794 37.6133 32.7835 36.5924 33.5135 35.5202C34.8195 35.4119 36.1198 35.2123 37.403 34.9214C37.4601 35.1552 37.5114 35.3891 37.557 35.6172C37.8365 36.8491 37.8821 38.1323 37.6996 39.3984V39.3984ZM38.7376 33.2675C38.5779 33.3188 38.4182 33.3702 38.2528 33.4158C37.8536 32.1725 37.3631 30.9577 36.7985 29.7772C37.346 28.6138 37.8079 27.4161 38.1958 26.1899C38.4923 26.2755 38.7775 26.3667 39.0512 26.458C41.7089 27.3705 43.5738 28.7278 43.5738 29.7658C43.5738 30.8836 41.5834 32.3265 38.7376 33.2675ZM30.2 32.412C31.6429 32.412 32.812 31.2429 32.812 29.8C32.812 28.3571 31.6429 27.188 30.2 27.188C28.7571 27.188 27.5879 28.3571 27.5879 29.8C27.5879 31.2429 28.7571 32.412 30.2 32.412Z" fill="white"/>
</g>
<defs>
<clipPath id="clip0">
<rect width="29.2" height="29.2" fill="white" transform="translate(15.6 15.2)"/>
</clipPath>
</defs>
</svg>
