<svg xmlns="http://www.w3.org/2000/svg" width="60" height="60" fill="none" viewBox="0 0 60 60"><circle cx="30" cy="30" r="30" fill="#180537"/><g clip-path="url(#clip0)"><path fill="#fff" d="M44.0725 34.9094C43.973 34.0781 43.5451 33.433 42.899 32.9275C42.1508 32.3425 41.2748 32.1016 40.3413 32.0633C39.5803 32.0323 38.8357 32.1454 38.1175 32.4064C37.9131 32.4803 37.7124 32.5679 37.5061 32.651C37.4788 32.6008 37.4496 32.5533 37.4258 32.5031C37.2141 32.0706 36.9586 31.6573 36.903 31.1618C36.8628 30.8095 36.8136 30.4573 36.8975 30.1097C36.9778 29.7748 37.0837 29.4454 37.1822 29.1141C37.2333 28.9435 37.1977 28.8486 37.0353 28.7719C36.9787 28.7455 36.9176 28.7217 36.8555 28.7126C36.4559 28.6551 36.0626 28.688 35.6757 28.8002C35.5388 28.8404 35.4393 28.917 35.4092 29.0685C35.3919 29.1552 35.3563 29.2382 35.3326 29.324C35.2313 29.6808 35.1601 30.044 34.9968 30.3834C34.5871 31.2357 34.1208 32.0551 33.6417 32.8691C33.5897 32.9567 33.5359 33.0433 33.4702 33.1501C33.3023 32.7988 33.1234 32.484 33.0687 32.1135C33.0075 31.6956 32.9592 31.2786 33.0632 30.8634C33.1407 30.554 33.242 30.2502 33.3351 29.9454C33.3798 29.8003 33.3588 29.7246 33.2274 29.6479C33.1608 29.6096 33.086 29.5749 33.0112 29.564C32.5969 29.5028 32.189 29.5348 31.7902 29.6644C31.6661 29.7045 31.6014 29.7848 31.563 29.9126C31.4517 30.2894 31.3568 30.6754 31.2008 31.034C30.5675 32.4849 29.9169 33.9285 29.2663 35.3711C29.1303 35.6723 28.9715 35.9633 28.8182 36.2563C28.779 36.3311 28.7233 36.3959 28.675 36.4661C28.6357 36.4205 28.6211 36.3886 28.6211 36.3575C28.622 36.1723 28.6001 35.9807 28.6357 35.8018C28.7425 35.2598 28.8657 34.7196 28.9962 34.1821C29.1029 33.7387 29.2279 33.2988 29.3475 32.8572C29.3876 32.7094 29.3885 32.5716 29.2818 32.4475C29.1038 32.2394 28.7315 32.1938 28.5107 32.3544C28.487 32.3717 28.4587 32.3836 28.4131 32.4101C28.4213 32.3398 28.4259 32.296 28.4322 32.2522C28.4788 31.9146 28.4879 31.5788 28.3957 31.2457C28.2799 30.8314 27.9851 30.5933 27.5553 30.6061C27.3546 30.6124 27.1447 30.6462 26.9595 30.7192C26.1793 31.0249 25.5798 31.566 25.0697 32.2175C25.0231 32.2768 24.962 32.3307 24.8972 32.3663C24.2375 32.7322 23.575 33.0935 22.9134 33.4567C22.6662 33.5918 22.4189 33.7277 22.1771 33.86C21.98 33.6711 21.8002 33.4759 21.5958 33.3098C20.9735 32.8024 20.3411 32.3079 19.7151 31.806C19.1603 31.3616 18.622 30.8981 18.2104 30.3095C17.9038 29.8715 17.7067 29.3924 17.6885 28.8504C17.6647 28.1606 17.86 27.53 18.2113 26.9424C18.6612 26.1914 19.2735 25.5891 19.9478 25.0425C20.6605 24.4649 21.4315 23.9749 22.2309 23.5278C23.3487 22.9018 24.4994 22.3479 25.7322 21.982C26.9969 21.607 28.2789 21.3925 29.6021 21.5422C30.1222 21.6006 30.6268 21.7201 31.0913 21.9747C31.4462 22.1691 31.7373 22.4237 31.8733 22.8224C32.0065 23.2148 32.0029 23.6117 31.9098 24.0096C31.7218 24.8153 31.2802 25.4805 30.7244 26.0746C29.8138 27.0482 28.7023 27.7107 27.4504 28.1487C26.7286 28.4015 25.9858 28.5602 25.223 28.6241C24.6007 28.6761 23.9911 28.6214 23.4016 28.4042C23.0111 28.2609 22.6716 28.041 22.3979 27.7226C22.3486 27.6651 22.2866 27.6039 22.1953 27.6569C22.1059 27.7089 22.0904 27.7946 22.1205 27.8804C22.1707 28.0237 22.2163 28.1715 22.2948 28.2993C22.49 28.6195 22.7757 28.8522 23.0896 29.0521C23.6927 29.4353 24.3661 29.564 25.0651 29.5941C26.1254 29.6397 27.1602 29.4819 28.1795 29.1972C29.6358 28.7911 30.9015 28.0739 31.9171 26.9424C32.763 26.0007 33.3661 24.9367 33.4957 23.6528C33.5587 23.0259 33.4921 22.4118 33.1982 21.8406C32.8798 21.221 32.3742 20.7939 31.7693 20.4773C30.8896 20.0156 29.9388 19.834 28.9578 19.7811C28.6303 19.7811 28.3027 19.7811 27.9751 19.7811C26.7861 19.8386 25.6373 20.0886 24.5204 20.4946C23.6754 20.8022 22.8459 21.1489 22.0411 21.5504C20.2882 22.4264 18.6557 23.474 17.3153 24.9257C16.6473 25.6494 16.0816 26.4432 15.7567 27.3831C15.6618 27.6587 15.6034 27.9507 15.535 28.2354C15.5295 28.2591 15.556 28.2819 15.4976 28.3056C15.4976 28.4398 15.4976 28.573 15.4976 28.7071C15.556 28.8103 15.5623 28.9125 15.5888 29.0156C15.7613 29.6844 16.1162 30.2593 16.5561 30.7831C17.1829 31.5295 17.9412 32.1299 18.7278 32.6957C19.4094 33.1857 20.1011 33.6648 20.7855 34.1511C20.9032 34.2342 21.0118 34.3309 21.1395 34.4331C21.03 34.4924 20.9379 34.5444 20.843 34.5928C19.9396 35.0508 19.0709 35.5646 18.2697 36.1869C17.787 36.5619 17.3198 36.9607 16.9904 37.4808C16.4602 38.3185 16.2723 39.2109 16.6674 40.1636C16.7833 40.4419 16.9594 40.6828 17.2076 40.8598C17.2879 40.9173 17.3782 40.9748 17.4722 40.9967C17.7131 41.0533 17.9595 41.0907 18.204 41.1354C18.4349 41.1354 18.6648 41.1354 18.8957 41.1354C19.6613 41.067 20.3575 40.8051 20.9862 40.3707C21.9699 39.6918 22.6324 38.7821 22.918 37.6131C23.1251 36.7645 23.1334 35.9141 22.8897 35.0691C22.8669 34.9906 22.8386 34.914 22.8085 34.8382C22.7784 34.7625 22.7437 34.6886 22.7027 34.5937C23.2246 34.2935 23.7484 33.9923 24.2712 33.6912C24.2795 33.6976 24.2868 33.7049 24.295 33.7113C24.2667 33.8044 24.2366 33.8974 24.2101 33.9923C24.024 34.6731 23.8999 35.3657 23.9446 36.0719C23.992 36.8247 24.2019 37.5292 24.6426 38.1588C24.9985 38.668 25.848 38.6862 26.2267 38.1762C26.3609 37.9946 26.4914 37.8057 26.589 37.6031C26.8445 37.0748 27.0817 36.5373 27.3254 36.0035C27.3363 35.9807 27.3455 35.9579 27.3683 35.9059C27.3509 36.1586 27.3299 36.3804 27.3208 36.603C27.3062 36.9498 27.3263 37.2947 27.4449 37.625C27.5462 37.9079 27.7187 38.1187 28.0426 38.1552C28.2634 38.1807 28.4405 38.0794 28.6029 37.9508C28.8575 37.75 29.0637 37.5027 29.217 37.2208C29.6504 36.4242 30.0957 35.633 30.489 34.8163C30.9142 33.933 31.2856 33.0242 31.6807 32.1263C31.7026 32.077 31.7218 32.0268 31.7464 31.9666C31.8395 32.3334 31.9052 32.692 32.0248 33.0324C32.1635 33.4266 32.3359 33.8117 32.5239 34.1858C32.6124 34.3628 32.6024 34.4778 32.4792 34.6256C31.9645 35.2461 31.459 35.8739 30.9526 36.5017C30.8403 36.6404 30.729 36.7809 30.6359 36.9324C30.5794 37.0246 30.5419 37.1359 30.5264 37.2436C30.4963 37.4489 30.6222 37.646 30.8422 37.6934C31.042 37.7363 31.2555 37.7528 31.4599 37.7372C32.1662 37.6852 32.8077 37.437 33.3753 37.0173C34.1098 36.4725 34.3462 35.7307 34.1682 34.8501C34.1199 34.611 34.035 34.3783 33.952 34.1484C33.9145 34.0444 33.9127 33.9714 33.9802 33.8746C34.5679 33.036 35.0698 32.1454 35.5361 31.2357C35.5543 31.2001 35.5735 31.1636 35.6054 31.1253C35.7569 31.9128 35.9841 32.671 36.392 33.3591C36.1839 33.5598 35.9777 33.7414 35.7916 33.9422C35.3809 34.3829 35.0251 34.8629 34.8398 35.4469C34.7604 35.6987 34.6984 35.9542 34.734 36.2243C34.7896 36.6422 35.1318 36.9133 35.5424 36.8184C36.4212 36.6149 37.1804 36.2006 37.7352 35.4669C38.1084 34.9733 38.1422 34.4221 37.9861 33.8445C37.9432 33.6876 37.8921 33.5334 37.8374 33.3527C38.0546 33.2852 38.2663 33.2049 38.4843 33.1547C39.6204 32.8955 40.7437 32.9411 41.8378 33.3509C42.4765 33.5899 42.993 33.9914 43.2987 34.622C43.6728 35.393 43.4657 36.1239 42.7393 36.6112C42.6718 36.6568 42.5942 36.6924 42.5377 36.749C42.503 36.7837 42.4829 36.8539 42.4911 36.9014C42.4957 36.9297 42.5705 36.9644 42.6125 36.9644C42.8516 36.9625 43.045 36.8375 43.2312 36.7089C43.6975 36.3867 44.005 35.9524 44.078 35.3821C44.0798 35.3657 44.0561 35.3501 44.1145 35.3346C44.1145 35.2078 44.1145 35.0819 44.1145 34.955C44.0561 34.9395 44.0807 34.924 44.0789 34.9076L44.0725 34.9094ZM21.8486 36.4515C21.7728 37.469 21.312 38.2939 20.5583 38.9609C20.134 39.3369 19.6485 39.6042 19.0819 39.6982C18.8765 39.732 18.6667 39.7402 18.4668 39.6553C18.183 39.534 18.1192 39.2821 18.1137 39.0129C18.1055 38.585 18.2551 38.1981 18.4604 37.8303C18.7287 37.3503 19.122 36.9844 19.5418 36.6432C20.2033 36.1048 20.9215 35.6485 21.656 35.2187C21.6679 35.2114 21.6825 35.2078 21.7117 35.1959C21.8248 35.6157 21.8796 36.03 21.8476 36.4524L21.8486 36.4515ZM27.5882 32.0305C27.5343 32.3553 27.4677 32.6802 27.3728 32.995C27.0443 34.0845 26.6237 35.1412 26.1683 36.1823C26.0844 36.3749 25.9621 36.551 25.8553 36.7335C25.8389 36.7618 25.8143 36.7864 25.7906 36.8101C25.6592 36.9406 25.5332 36.9333 25.4666 36.7627C25.3891 36.5647 25.3416 36.353 25.3005 36.1431C25.2732 36.0026 25.2796 35.8548 25.2713 35.7106C25.2805 34.6858 25.5925 33.7533 26.1236 32.8864C26.3426 32.5287 26.5808 32.1883 26.944 31.9611C27.0562 31.8918 27.1812 31.8361 27.308 31.7996C27.5015 31.7449 27.621 31.8352 27.5891 32.0296L27.5882 32.0305ZM31.5037 37.0191C31.9727 36.4716 32.4409 35.925 32.9108 35.3757C32.9692 35.9862 31.9326 37.2043 31.5037 37.0191ZM35.9987 35.9141C35.8992 35.9706 35.7906 36.0126 35.6884 36.0646C35.5954 36.113 35.5643 36.0646 35.5616 35.9843C35.5598 35.9296 35.568 35.873 35.5826 35.8201C35.7724 35.1494 36.1219 34.5782 36.6429 34.1128C36.6502 34.1055 36.6621 34.1028 36.6794 34.0936C36.9267 34.7853 36.6411 35.5463 35.9978 35.9141H35.9987Z"/></g><defs><clipPath id="clip0"><rect width="29.2" height="29.2" fill="#fff" transform="translate(15.2 15.6)"/></clipPath></defs></svg>