<svg xmlns="http://www.w3.org/2000/svg" width="60" height="60" fill="none" viewBox="0 0 60 60"><circle cx="30" cy="30" r="30" fill="#180537"/><path fill="#fff" d="M29.6001 15.4562C21.7868 15.4562 15.4563 21.7867 15.4563 29.6C15.4563 37.4133 21.7868 43.7437 29.6001 43.7437C37.4133 43.7437 43.7438 37.4133 43.7438 29.6C43.7438 21.7867 37.4133 15.4562 29.6001 15.4562ZM41.0063 29.6C41.0063 30.8832 40.7839 32.1208 40.3904 33.2728H39.2326C38.9874 33.2728 38.7536 33.1758 38.5825 32.9991L36.7575 31.1398C36.5008 30.8775 36.5008 30.4498 36.7632 30.1874L37.4761 29.4745V28.9783C37.4761 28.8073 37.4076 28.6419 37.2879 28.5221L36.7518 27.986C36.632 27.8662 36.4666 27.7978 36.2955 27.7978H35.383C35.0294 27.7978 34.7386 27.5069 34.7386 27.1533C34.7386 26.9823 34.807 26.8169 34.9268 26.6971L35.4629 26.161C35.5826 26.0412 35.748 25.9728 35.9191 25.9728H37.7441C38.0977 25.9728 38.3886 25.6819 38.3886 25.3283V24.7923C38.3886 24.4387 38.0977 24.1478 37.7441 24.1478H35.6511C35.1492 24.1478 34.7386 24.5584 34.7386 25.0603V25.3169C34.7386 25.7105 34.4876 26.0583 34.1169 26.1838L32.3147 26.7826C32.1265 26.8454 32.0011 27.0165 32.0011 27.2161V27.3416C32.0011 27.5925 31.7958 27.7978 31.5448 27.7978H30.6323C30.3814 27.7978 30.1761 27.5925 30.1761 27.3416C30.1761 27.0906 29.9708 26.8853 29.7198 26.8853H29.543C29.3719 26.8853 29.2122 26.9823 29.1324 27.1362L28.5963 28.2027C28.4423 28.5107 28.1286 28.7046 27.7808 28.7046H26.5204C26.0185 28.7046 25.6079 28.294 25.6079 27.7921V26.3492C25.6079 26.1097 25.7048 25.8758 25.8759 25.7048L27.0222 24.5584C27.2846 24.2961 27.4329 23.9368 27.4329 23.5604C27.4329 23.3665 27.5583 23.1897 27.7465 23.1269L30.0278 22.3684C30.1247 22.3342 30.2103 22.2829 30.2787 22.2144L31.8072 20.686C31.9269 20.5662 31.9954 20.4008 31.9954 20.2298C31.9954 19.8762 31.7045 19.5853 31.3509 19.5853H30.1704L29.2579 20.4978V20.9541C29.2579 21.205 29.0526 21.4103 28.8016 21.4103H27.8891C27.6382 21.4103 27.4329 21.205 27.4329 20.9541V19.8134C27.4329 19.6708 27.5013 19.534 27.6154 19.4484L29.2636 18.2108C29.3719 18.2051 29.4803 18.1937 29.5886 18.1937C35.8906 18.1937 41.0063 23.3094 41.0063 29.6ZM22.8761 23.5033C22.8761 23.3323 22.9445 23.1669 23.0643 23.0471L24.5129 21.5985C24.6326 21.4787 24.798 21.4103 24.9691 21.4103C25.3227 21.4103 25.6136 21.7012 25.6136 22.0548V22.9673C25.6136 23.1383 25.5451 23.3037 25.4254 23.4235L24.8893 23.9596C24.7695 24.0794 24.6041 24.1478 24.433 24.1478H23.5205C23.1669 24.1478 22.8761 23.8569 22.8761 23.5033ZM30.1761 40.9777V40.5728C30.1761 40.0709 29.7654 39.6603 29.2636 39.6603H28.1115C27.4956 39.6603 26.5888 39.358 26.0926 38.9873L24.8265 38.0349C24.1707 37.5444 23.7886 36.7745 23.7886 35.959V34.5959C23.7886 33.6834 24.2676 32.8394 25.049 32.3717L27.4956 30.906C27.9005 30.6665 28.3625 30.5353 28.8301 30.5353H30.6095C31.2311 30.5353 31.83 30.7577 32.2976 31.1569L34.7614 33.2728H35.805C36.2898 33.2728 36.7518 33.4667 37.094 33.8089L38.0806 34.7955C38.2745 34.9894 38.5426 35.0978 38.8163 35.0978H39.5805C37.7327 38.4569 34.231 40.7724 30.1761 40.9777Z"/></svg>